<svg xmlns="http://www.w3.org/2000/svg" viewBox="0 0 1600 1050"><rect width="1600" height="1050" fill="#fff"/><defs><style>
.t{font-family:Arial,Helvetica,sans-serif;fill:#172033}.h{font:700 24px Arial,Helvetica,sans-serif}.b{font:700 17px Arial,Helvetica,sans-serif}.s{font:400 14px Arial,Helvetica,sans-serif}.xs{font:400 12px Arial,Helvetica,sans-serif}.mid{text-anchor:middle}.dash{stroke-dasharray:7 6}.thin{stroke-width:1.5}.arr{stroke:#163e6d;stroke-width:3;fill:none;marker-end:url(#a)}.g{fill:#fff;stroke:#94a3b8;stroke-width:1.5}.card{fill:#fff;stroke-width:2.5}.line{stroke:#94a3b8;stroke-width:1.5;fill:none}
</style><marker id="a" markerWidth="9" markerHeight="9" refX="8" refY="3" orient="auto"><path d="M0 0v6l9-3z" fill="#163e6d"/></marker><marker id="r" markerWidth="9" markerHeight="9" refX="8" refY="3" orient="auto"><path d="M0 0v6l9-3z" fill="#ef3340"/></marker></defs><defs><pattern id="heat" width="60" height="60" patternUnits="userSpaceOnUse"><rect width="30" height="30" fill="#ef5b4c"/><rect x="30" width="30" height="30" fill="#f5aa9e"/><rect y="30" width="30" height="30" fill="#d5edf1"/><rect x="30" y="30" width="30" height="30" fill="#74c0d2"/></pattern></defs>
<text x="300" y="35" class="t h mid">(4) Variable information note</text><rect x="30" y="100" width="170" height="44" rx="6" fill="#fff5f5" stroke="#ef6b6b"/><text x="115" y="128" class="b mid" fill="#df4747">variable_info_note</text><rect x="220" y="55" width="350" height="190" class="g"/><path d="M350 55v190M220 93h350M220 131h350M220 169h350M220 207h350" class="line"/><text x="285" y="80" class="b t mid">Column names</text><text x="460" y="80" class="b t mid">Meaning</text><text x="285" y="118" class="b t mid">protein_id</text><text x="460" y="118" class="s t mid">Protein ID</text><text x="285" y="156" class="b t mid">accession</text><text x="460" y="156" class="s t mid">Protein accession</text><text x="285" y="194" class="b t mid">gene</text><text x="460" y="194" class="s t mid">Gene symbol</text><text x="285" y="232" class="b t mid">description</text><text x="460" y="232" class="s t mid">Protein description</text><path d="M115 145v110" class="line dash" marker-end="url(#a)"/>
<text x="800" y="35" class="t h mid">(2) Sample information</text><rect x="590" y="60" width="420" height="230" class="g"/><path d="M685 60v230M795 60v230M890 60v230M960 60v230M590 98h420M590 136h420M590 174h420M590 212h420M590 250h420" class="line"/><rect x="590" y="60" width="95" height="38" fill="#6b7280"/><rect x="685" y="60" width="110" height="38" fill="#d84242"/><rect x="795" y="60" width="95" height="38" fill="#f36c32"/><rect x="890" y="60" width="70" height="38" fill="#7652a9"/><rect x="960" y="60" width="50" height="38" fill="#159e9e"/><text x="637" y="85" class="b mid" fill="#fff">sample_id</text><text x="740" y="85" class="b mid" fill="#fff">group</text><text x="842" y="85" class="b mid" fill="#fff">batch</text><text x="925" y="85" class="b mid" fill="#fff">condition</text><text x="985" y="85" class="b mid" fill="#fff">...</text><text x="800" y="122" class="s t mid">S1   Control   B1   Baseline   ...</text><text x="800" y="160" class="s t mid">S2   Control   B1   Baseline   ...</text><text x="800" y="198" class="s t mid">S3   Treatment   B2   Stimulated   ...</text><text x="800" y="236" class="s t mid">S4   Treatment   B2   Stimulated   ...</text><text x="800" y="274" class="s t mid">...   ...   ...   ...   ...</text><rect x="665" y="300" width="270" height="38" rx="6" fill="#fff2f2" stroke="#ef6b6b"/><text x="800" y="326" class="b mid" fill="#df4747">sample_info (data.frame)</text>
<text x="1280" y="35" class="t h mid">(5) Sample information note</text><rect x="1100" y="90" width="170" height="44" rx="6" fill="#fff5f5" stroke="#ef6b6b"/><text x="1185" y="118" class="b mid" fill="#df4747">sample_info_note</text><rect x="1290" y="70" width="270" height="190" class="g"/><path d="M1385 70v190M1290 108h270M1290 146h270M1290 184h270M1290 222h270" class="line"/><text x="1338" y="96" class="b t mid">Name</text><text x="1472" y="96" class="b t mid">Meaning</text><text x="1338" y="134" class="b t mid">sample_id</text><text x="1472" y="134" class="s t mid">Sample ID</text><text x="1338" y="172" class="b t mid">group</text><text x="1472" y="172" class="s t mid">Experimental group</text><text x="1338" y="210" class="b t mid">batch</text><text x="1472" y="210" class="s t mid">Batch</text><text x="1338" y="248" class="b t mid">condition</text><text x="1472" y="248" class="s t mid">Condition</text><path d="M1100 112h-82" class="line dash" marker-end="url(#a)"/>
<text x="300" y="280" class="t h mid">(3) Variable information</text><rect x="70" y="300" width="505" height="228" class="g"/><path d="M190 300v228M320 300v228M430 300v228M535 300v228M70 338h505M70 376h505M70 414h505M70 452h505M70 490h505" class="line"/><rect x="70" y="300" width="120" height="38" fill="#6b7280"/><rect x="190" y="300" width="130" height="38" fill="#d84242"/><rect x="320" y="300" width="110" height="38" fill="#f36c32"/><rect x="430" y="300" width="105" height="38" fill="#7652a9"/><rect x="535" y="300" width="40" height="38" fill="#159e9e"/><text x="130" y="325" class="b mid" fill="#fff">protein_id</text><text x="255" y="325" class="b mid" fill="#fff">accession</text><text x="375" y="325" class="b mid" fill="#fff">gene</text><text x="482" y="325" class="b mid" fill="#fff">description</text><text x="555" y="325" class="b mid" fill="#fff">...</text><text x="320" y="362" class="s t mid">P1   P12345   GENE1   Protein 1   ...</text><text x="320" y="400" class="s t mid">P2   Q8XYZ1   GENE2   Protein 2   ...</text><text x="320" y="438" class="s t mid">P3   O60606   GENE3   Protein 3   ...</text><text x="320" y="476" class="s t mid">P4   P43210   GENE4   Protein 4   ...</text><text x="320" y="514" class="s t mid">...   ...   ...   ...   ...</text><rect x="165" y="540" width="270" height="38" rx="6" fill="#fff2f2" stroke="#ef6b6b"/><text x="300" y="566" class="b mid" fill="#df4747">variable_info (data.frame)</text><path d="M575 380h65" class="line dash" marker-end="url(#a)"/>
<text x="800" y="360" class="t h mid">Samples</text><text x="800" y="390" class="s t mid">S1  S2  S3  S4  ...  Sn</text><rect x="650" y="405" width="300" height="360" fill="url(#heat)"/><text x="620" y="590" class="b t mid" transform="rotate(-90 620 590)">Proteins (variables)</text><rect x="720" y="550" width="160" height="70" rx="8" fill="#df4747"/><text x="800" y="580" class="b mid" fill="#fff">expression_data</text><text x="800" y="603" class="s mid" fill="#fff">(data.frame)</text><text x="800" y="800" class="t h mid">(1) Expression data</text><path d="M800 340v55" class="line dash" marker-end="url(#a)"/>
<text x="75" y="620" class="t h">(6) Annotation</text><rect x="35" y="645" width="440" height="180" rx="10" class="g"/><rect x="55" y="735" width="145" height="70" rx="6" fill="#eef5ff" stroke="#6aa4e8"/><text x="127" y="765" class="b mid" fill="#163e6d">annotation</text><text x="127" y="788" class="s mid" fill="#163e6d">(list)</text><rect x="225" y="665" width="220" height="135" rx="6" class="g"/><text x="245" y="690" class="s t">GO_background</text><text x="245" y="717" class="s t">KEGG_background</text><text x="245" y="744" class="s t">ID_mapping</text><text x="245" y="771" class="s t">Pfam_background</text><text x="245" y="794" class="s t">...</text><path d="M445 715h185" class="line dash" marker-end="url(#a)"/>
<text x="1260" y="305" class="t h mid">(8) Processing information</text><rect x="1050" y="330" width="500" height="410" rx="12" class="g"/><rect x="1165" y="345" width="270" height="40" rx="6" fill="#fff5f5" stroke="#ef6b6b"/><text x="1300" y="372" class="b mid" fill="#df4747">process_info (list(parameters, time))</text><rect x="1068" y="400" width="464" height="36" rx="5" fill="#fbfbfb" stroke="#ef6b6b"/><text x="1085" y="424" class="s" fill="#ef6b6b">(1) Creation</text><text x="1270" y="424" class="s t">Function: create_dataset</text><rect x="1068" y="440" width="464" height="36" rx="5" fill="#fbfbfb" stroke="#f39a63"/><text x="1085" y="464" class="s" fill="#f39a63">(2) Import and validation</text><text x="1270" y="464" class="s t">Function: import_data</text><rect x="1068" y="480" width="464" height="36" rx="5" fill="#fbfbfb" stroke="#e4bc2f"/><text x="1085" y="504" class="s" fill="#e4bc2f">(3) Data clean</text><text x="1270" y="504" class="s t">Function: data_clean</text><rect x="1068" y="520" width="464" height="36" rx="5" fill="#fbfbfb" stroke="#45a56b"/><text x="1085" y="544" class="s" fill="#45a56b">(4) Transformation</text><text x="1270" y="544" class="s t">Function: transform_data</text><rect x="1068" y="560" width="464" height="36" rx="5" fill="#fbfbfb" stroke="#2ca7bd"/><text x="1085" y="584" class="s" fill="#2ca7bd">(5) Missing-value imputation</text><text x="1270" y="584" class="s t">Function: impute_missing</text><rect x="1068" y="600" width="464" height="36" rx="5" fill="#fbfbfb" stroke="#2f8bd4"/><text x="1085" y="624" class="s" fill="#2f8bd4">(6) Normalization</text><text x="1270" y="624" class="s t">Function: normalize_data</text><rect x="1068" y="640" width="464" height="36" rx="5" fill="#fbfbfb" stroke="#5a60c7"/><text x="1085" y="664" class="s" fill="#5a60c7">(7) Differential analysis</text><text x="1270" y="664" class="s t">Function: differential_analysis</text><rect x="1068" y="680" width="464" height="36" rx="5" fill="#fbfbfb" stroke="#8c50b9"/><text x="1085" y="704" class="s" fill="#8c50b9">(8) Enrichment / network</text><text x="1270" y="704" class="s t">Function: enrich_network</text><path d="M1035 560h-75" class="line dash" marker-end="url(#a)"/><text x="75" y="855" class="t h">(7) Analysis results</text><rect x="35" y="875" width="740" height="125" rx="10" class="g"/><rect x="50" y="905" width="150" height="68" rx="6" fill="#eefaf1" stroke="#64c18b"/><text x="125" y="934" class="b mid" fill="#16834a">analysis_results</text><text x="125" y="958" class="s mid" fill="#16834a">(list)</text><text x="260" y="900" class="b t mid">Dimensionality</text><text x="260" y="920" class="s t mid">reduction</text><circle cx="235" cy="950" r="5" fill="#14b8a6"/><circle cx="258" cy="940" r="5" fill="#ef4444"/><circle cx="282" cy="955" r="5" fill="#3b82f6"/><text x="390" y="900" class="b t mid">Differential</text><text x="390" y="920" class="s t mid">analysis</text><path d="M350 970l40-25 40 25" fill="none" stroke="#94a3b8" stroke-width="4"/><text x="520" y="910" class="b t mid">Enrichment</text><path d="M475 935h90m-90 15h70m-70 15h50" stroke="#65c174" stroke-width="10"/><text x="660" y="910" class="b t mid">Network analysis</text><path d="M620 958l35-25 35 25 25-30" class="line"/><circle cx="620" cy="958" r="8" fill="#3b82f6"/><circle cx="655" cy="933" r="8" fill="#8b5cf6"/><circle cx="690" cy="958" r="8" fill="#ef4444"/><circle cx="715" cy="928" r="8" fill="#60c17b"/><path d="M175 825v45" class="line dash" marker-end="url(#a)"/>
<text x="1190" y="810" class="t h mid">(9) Provenance and extra files</text><rect x="1040" y="835" width="520" height="165" rx="10" class="g"/><rect x="1060" y="870" width="150" height="72" rx="6" fill="#eef5ff" stroke="#6aa4e8"/><text x="1135" y="900" class="b mid" fill="#163e6d">metadata /</text><text x="1135" y="922" class="s mid" fill="#163e6d">other_files</text><text x="1260" y="920" class="s t mid">metadata</text><text x="1370" y="920" class="s t mid">imported files</text><text x="1475" y="920" class="s t mid">reports / exports</text><path d="M775 935h255" class="line dash" marker-end="url(#a)"/><rect x="330" y="1010" width="260" height="30" rx="16" fill="#fff" stroke="#1769aa"/><text x="460" y="1031" class="b mid" fill="#1769aa">Interoperability</text><rect x="650" y="1010" width="260" height="30" rx="16" fill="#fff" stroke="#159947"/><text x="780" y="1031" class="b mid" fill="#159947">Reproducibility</text><rect x="980" y="1010" width="260" height="30" rx="16" fill="#fff" stroke="#f06a00"/><text x="1110" y="1031" class="b mid" fill="#f06a00">Recoverability</text></svg>